<svg xmlns="http://www.w3.org/2000/svg" id="Icons" version="1.1" xmlns:svg="http://www.w3.org/2000/svg" width="215" height="215" viewBox="0 0 215 215" data-app="Xyris">
    <defs id="defs9">
    </defs>
    <g id="DragonKali">
        <title id="title48">
        </title>
        <g id="g5">
            <g id="g4">
                <circle id="Background" cx="107.5" cy="107.5" r="107.5" fill="rgb(77, 77, 77)" style="mix-blend-mode: normal; ">
                </circle>
                <g id="g1309" transform="matrix(0.46754081,0,0,0.46754081,-12.204017,-7.528097)" fill-opacity="1" fill="rgb(255, 255, 255)">
                    <g id="g1303" fill-opacity="1" fill="rgb(255, 255, 255)">
                        <path d="M 175.8,394.5 188.3,227.7 57.7,174.5 c 0,0 18.2,39.9 5,89.6 0,0 48,21.2 38,76.7 z" fill="rgb(255, 255, 255)" id="path1301" fill-opacity="1">
                        </path>
                    </g>
                    <g id="g1307" fill-opacity="1" fill="rgb(255, 255, 255)">
                        <path d="M 336.2,394.5 323.7,227.7 454.3,174.5 c 0,0 -18.2,39.9 -5,89.6 0,0 -48,21.2 -38,76.7 z" fill="rgb(255, 255, 255)" id="path1305" fill-opacity="1">
                        </path>
                    </g>
                </g>
                <g id="g1333" transform="matrix(0.39119241,0,0,0.39119241,5.6413059,-4.2735251)" fill-opacity="1" fill="rgb(255, 255, 255)">
                </g>
                <g id="g2" fill="rgb(255, 255, 255)">
                    <g id="g1325" transform="matrix(0.41292367,0,0,0.3365942,0.93531655,15.473059)" fill-opacity="1" fill="rgb(255, 255, 255)">
                        <path d="M 256,47 C 199,47 152.8,93.2 152.8,150.2 v 224.3 l 87.4,-47.2 c 6,0 11.9,-0.5 17.7,-1.3 V 47 c -0.6,0 -1.2,0 -1.9,0 z" fill="rgb(255, 255, 255)" id="path1323" fill-opacity="1">
                        </path>
                    </g>
                    <g id="g1329" transform="matrix(0.41292367,0,0,0.3416609,0.93531655,15.234924)" fill-opacity="1" fill="rgb(255, 255, 255)">
                        <path d="m 256,47 v 279.3 c 58.2,-7.7 103.2,92.6 103.2,32.2 V 150.2 C 359.2,93.2 313,47 256,47 Z" fill="rgb(255, 255, 255)" id="path1327" fill-opacity="1">
                        </path>
                    </g>
                    <g id="g1353" transform="matrix(0.41292367,0,0,0.41292367,0.93531655,11.885573)" fill-opacity="1" fill="rgb(255, 255, 255)">
                        <path d="m 219.6,426.9 -66.8,-26.4 v -116 h 66.8 z" fill="rgb(255, 255, 255)" id="path1351" fill-opacity="1">
                        </path>
                    </g>
                    <g id="g1357" transform="matrix(0.41292367,0,0,0.41292367,0.93531655,11.885573)" fill-opacity="1" fill="rgb(255, 255, 255)">
                        <path d="m 359.2,400.5 -66.8,26.4 V 284.5 h 66.8 z" fill="rgb(255, 255, 255)" id="path1355" fill-opacity="1">
                        </path>
                    </g>
                </g>
                <g id="g1343" transform="matrix(0.41292367,0,0,0.41292367,0.93531655,11.885573)" fill-opacity="1" fill="rgb(60, 60, 60)">
                    <g id="g1341" fill-opacity="1" fill="rgb(60, 60, 60)">
                    </g>
                </g>
                <g id="g1" fill="rgb(77, 77, 77)">
                    <g id="g1349" transform="matrix(0.41292367,0,0,0.41292367,0.93531655,11.885573)" fill-opacity="1" fill="rgb(77, 77, 77)">
                        <g id="g1347" fill-opacity="1" fill="rgb(77, 77, 77)">
                            <path id="path1345" fill-opacity="1" d="m 256,147.3 v 145 c 44.9,0 81.2,-36.4 81.2,-81.2 v -37.3 z m -81.2,26.5 V 211 c 0,44.9 36.4,81.2 81.2,81.2 h 2 l -1.4,-145.1 z" fill="rgb(77, 77, 77)">
                            </path>
                        </g>
                    </g>
                </g>
                <g id="g3" transform="matrix(1,0,0,0.92833196,0,5.6281952)" fill="rgb(255, 255, 255)">
                    <path d="m 153.46932,38.477857 c -3.26209,13.585189 -18.45767,13.461312 -18.45767,13.461312 -3.22081,11.314109 -16.14532,8.258474 -16.14532,8.258474 l -3.42728,2.849172 c 0.49552,-4.046651 0.12388,-8.21718 -1.19748,-12.181248 l -7.59779,-23.082433 -7.597802,23.041141 c -1.362645,4.087944 -1.734281,8.423644 -1.156184,12.594172 l -3.964068,-3.262096 c 0,0 -12.924511,3.055634 -16.145315,-8.258475 0,0 -15.236883,0.123879 -18.498981,-13.46131 0,0 -6.978409,25.270928 16.516947,31.918998 h 23.94958 c 0.20646,0.495509 0.454213,1.032309 0.701963,1.527819 l 1.94074,4.005359 c 0.78457,1.610403 2.39497,2.601419 4.17053,2.601419 1.77558,0 3.42727,-1.03231 4.17053,-2.601419 l 1.94075,-4.005359 c 0.24774,-0.49551 0.4955,-1.03231 0.70197,-1.527819 h 23.49536 c 23.61922,-6.565485 16.59952,-31.877707 16.59952,-31.877707 z" fill="rgb(255, 255, 255)" id="path1367" fill-opacity="1" stroke-width="0.412924">
                    </path>
                    <path d="m 106.64378,78.531453 c 1.77558,0 3.42727,-1.032308 4.17053,-2.601418 l 1.94074,-4.00536 c 0.24777,-0.49551 0.49551,-1.03231 0.70197,-1.527817 h 23.49536 c 23.49536,-6.648071 16.51694,-31.919001 16.51694,-31.919001 -3.26209,13.585189 -18.45767,13.461312 -18.45767,13.461312 -3.22081,11.314109 -16.14532,8.258474 -16.14532,8.258474 l -3.42728,2.849172 c 0.49552,-4.046651 0.12388,-8.21718 -1.19748,-12.181248 l -7.59779,-23.082433 z" fill="rgb(255, 255, 255)" id="path1369" fill-opacity="1" stroke-width="0.412924">
                    </path>
                </g>
            </g>
        </g>
        <animate attributeName="opacity" keyTimes="0; 1" values="0.7; 1" begin="1.00999" dur="0.99002" fill="freeze" keySplines="0.6 0.04 0.98 0.335" repeatCount="indefinite">
        </animate>
    </g>
</svg>
